# xmcd
#
# Track frame offsets: 
#        150
#        16447
#        27757
#        36737
#        67262
#        93712
#        108847
#        118007
#        132120
#        151240
#        175985
#        189420
#        200147
#        218290
#        234817
#        252357
#        266857
#        273727
#        292445
#        313055
#
# Disc length: 4402 seconds
#
# Revision: 7
# Processed by: cddbd v1.5.2PL0 Copyright (c) Steve Scherf et al.
# Submitted via: ExactAudioCopy v0.99pb5
#
DISCID=36113014
DTITLE=Various Artist - My Baby Just Cares for Me - 20 Swinging Favou
DTITLE=rites
DYEAR=1987
DGENRE=Jazz
TTITLE0=Simone, Nina - My baby just cares for me
TTITLE1=Lee, Peggy - I've got you under my skin
TTITLE2=Sinatra, Frank - When you're smiling
TTITLE3=Holiday, Billie - Day in day out
TTITLE4=Fitzgerald, Ella and Louis Armstrong - Cheeck to cheek
TTITLE5=Simone, Nina - Love me or leave me
TTITLE6=Sinatra, Frank - My blue heaven
TTITLE7=Lee, Peggy - Black coffee
TTITLE8=Fitzgerald, Ella and Louis Armstrong - Let's call the whole thin
TTITLE8=g off
TTITLE9=Holiday, Billie - Just one of those things
TTITLE10=Sinatra, Frank - September in the rain
TTITLE11=Lee, Peggy - It's all right with me
TTITLE12=Simone, Nina - Mood indigo
TTITLE13=Holiday, Billie - Love is here to stay
TTITLE14=Fitzgerald, Ella and Louis Armstrong - A fine romance
TTITLE15=Lee, Peggy - On the sunny side of the street
TTITLE16=Sinatra, Frank - Should I
TTITLE17=Simone, Nina - I loves you Porgy
TTITLE18=Fitzgerald, Ella and Louis Armstrong - A foggy day in London to
TTITLE18=wn
TTITLE19=Holiday, Billie - But not for me
EXTD=
EXTT0=
EXTT1=
EXTT2=
EXTT3=
EXTT4=
EXTT5=
EXTT6=
EXTT7=
EXTT8=
EXTT9=
EXTT10=
EXTT11=
EXTT12=
EXTT13=
EXTT14=
EXTT15=
EXTT16=
EXTT17=
EXTT18=
EXTT19=
PLAYORDER=
